<?xml version="1.0" standalone="no"?><!DOCTYPE svg PUBLIC "-//W3C//DTD SVG 1.1//EN" "http://www.w3.org/Graphics/SVG/1.1/DTD/svg11.dtd"><svg t="1775238724479" class="icon" viewBox="0 0 1024 1024" version="1.1" xmlns="http://www.w3.org/2000/svg" p-id="850" width="48" height="48" xmlns:xlink="http://www.w3.org/1999/xlink"><path d="M64.781017 322.002011v335.425585c0 56.431786 34.440654 65.831271 34.440654 65.831271l363.188943 244.517396c56.353312 37.624097 40.702036-43.884608 40.702036-43.884608v-307.209692L64.781017 322.002011z" fill="#37474F" p-id="851"></path><path d="M947.601905 327.653909v335.429073c0 56.426555-34.440654 65.831271-34.440654 65.831271s-306.832143 206.899402-363.188071 244.517395c-56.357672 37.618866-40.702036-43.887223-40.702036-43.887223V622.329501L947.601033 327.653909z" fill="#455A64" p-id="852"></path><path d="M941.950007 322.002011v335.425585c0 56.431786-34.441526 65.831271-34.441526 65.831271s-306.834759 206.902018-363.188071 244.517396c-56.353312 37.624097-40.702036-43.884608-40.702036-43.884608v-307.209692L941.950007 322.002011z" fill="#455A64" p-id="853"></path><path d="M544.093707 40.778668c-25.068199-15.663483-62.657419-15.663483-84.586644 0L83.577371 297.6488c-25.062096 15.668714-25.062096 43.85845 0 59.518445l375.929692 260.011722c25.05948 15.659995 62.657419 15.659995 84.586644 0l379.057331-263.141977c25.068199-15.659995 25.068199-43.85845 0-59.518445l-379.057331-253.739877z" fill="#546E7A" p-id="854"></path><path d="M503.365512 982.930534c-18.833847 0-31.389745-12.041455-31.389745-27.099813v-337.300251c0-15.049639 12.555898-27.099813 31.389745-27.099813s31.389745 12.050174 31.389745 27.099813v334.283347c0 18.075262-12.555898 30.116717-31.389745 30.116717z" fill="#546E7A" p-id="855"></path><path d="M816.321272 535.55691c0 31.363587 3.121536 43.902046-31.293833 65.85743l-78.221501 50.171276c-34.415368 21.955383-46.927669 3.138975-46.927669-25.085638v-81.534863c0-6.26923 0-9.408204-9.390765-15.677434-81.351756-56.449225-394.236889-272.820482-450.556195-313.583555L343.86201 115.352855c40.675878 25.087382 337.910607 222.649206 459.938241 307.314325 6.26051 3.138975 9.390765 9.408204 9.390765 12.547178v100.342552z" fill="#99AAB5" p-id="856"></path><path d="M807.15721 425.945664c-125.201486-84.612802-422.558286-282.035117-460.112629-307.10506l-56.341977 34.471172L199.931309 215.983146c56.340233 40.745633 369.343949 253.838406 450.721863 310.244035 6.26051 3.130255 6.26051 6.26923 6.26051 9.399484l153.373783-106.550746s0-3.130255-3.130255-3.130255z" fill="#CCD6DD" p-id="857"></path><path d="M817.17577 535.173258v-97.037909c0-6.26051-3.138975-9.390765-9.408204-12.521021-125.410751-84.525608-423.273275-281.73081-460.906092-306.773724L281.021484 162.664177c106.603062 71.995868 391.927127 259.819896 467.175321 313.034233 9.408204 6.26051 9.408204 12.521021 9.408204 15.651276V622.820402l31.354868-21.911786c31.354868-21.911786 28.215893-37.563062 28.215893-65.735358z" fill="#CCD6DD" p-id="858"></path><path d="M807.000261 425.71896C681.763897 341.167194 384.337342 143.892237 346.765561 118.840604l-65.744077 43.841011c106.446114 72.022026 391.351648 259.90709 466.49521 313.138866l3.130255 3.130256 65.744078-46.971266c-6.26051-3.130255-6.26051-6.26051-9.390766-6.260511z" fill="#E1E8ED" p-id="859"></path></svg>